/* XPM */
static char *_a7f0ee4cfcb4dbfd4d78733231a01f92j5NBxscx4n8fNSC[] = {
/* columns rows colors chars-per-pixel */
"40 40 126 2 ",
"   c None",
".  c #140F0C",
"X  c #14100D",
"o  c #1D130B",
"O  c #1E1C09",
"+  c #190F15",
"@  c #111110",
"#  c #1A1717",
"$  c #191719",
"%  c #1C1818",
"&  c #201704",
"*  c #231B07",
"=  c #2B1A06",
"-  c #241B0A",
";  c #23210D",
":  c #2C230D",
">  c #2D280E",
",  c #30200A",
"<  c #2A2614",
"1  c #28261D",
"2  c #372C15",
"3  c #3B2C14",
"4  c #332B18",
"5  c #3B341A",
"6  c #1D2122",
"7  c #3A3225",
"8  c #422F12",
"9  c #4D391C",
"0  c #433823",
"q  c #52421D",
"w  c #5C4723",
"e  c #5C4E29",
"r  c #5A5024",
"t  c #5C532B",
"y  c #6B5E26",
"u  c #605228",
"i  c #625231",
"p  c #6E5436",
"a  c #625B32",
"s  c #746232",
"d  c #7E6631",
"f  c #7C693D",
"g  c #7F723D",
"h  c #736244",
"j  c #7B7140",
"k  c #88660E",
"l  c #876416",
"z  c #866B15",
"x  c #8B6B16",
"c  c #84651E",
"v  c #8A681E",
"b  c #94731D",
"n  c #846323",
"m  c #846B24",
"M  c #8B6A24",
"N  c #81662D",
"B  c #926D23",
"V  c #8C7C2B",
"C  c #957426",
"Z  c #997325",
"A  c #957D25",
"S  c #997D25",
"D  c #95752B",
"F  c #957C2C",
"G  c #9B7C2D",
"H  c #826B35",
"J  c #8C6C35",
"K  c #856E3A",
"L  c #8C7532",
"P  c #83743E",
"I  c #8D753B",
"U  c #8C793E",
"Y  c #947433",
"T  c #997730",
"R  c #927A34",
"E  c #9C7C33",
"W  c #91763A",
"Q  c #957E3B",
"!  c #A27D2D",
"~  c #A17C33",
"^  c #846F42",
"/  c #877845",
"(  c #8C7A44",
")  c #8B7D4E",
"_  c #907B43",
"`  c #877653",
"'  c #958024",
"]  c #9B8227",
"[  c #93802D",
"{  c #9C812C",
"}  c #8F8237",
"|  c #9E8230",
" . c #9F8133",
".. c #9C8031",
"X. c #9B8035",
"o. c #9D8336",
"O. c #9B8032",
"+. c #9D823B",
"@. c #9E8439",
"#. c #9E853A",
"$. c #99833C",
"%. c #A28223",
"&. c #A18125",
"*. c #A38025",
"=. c #A58224",
"-. c #A18229",
";. c #A0802A",
":. c #A4832B",
">. c #A5832B",
",. c #A1812C",
"<. c #A1812D",
"1. c #A0822C",
"2. c #A3832D",
"3. c #A5812C",
"4. c #A5832C",
"5. c #A4822D",
"6. c #A4822F",
"7. c #A1842F",
"8. c #A38130",
"9. c #A08232",
"0. c #A08233",
"q. c #A48432",
"w. c #A08535",
"e. c #A08635",
"r. c #A48635",
"t. c #A5863C",
/* pixels */
"                                                                                ",
"                                                                                ",
"                                                                                ",
"                                                                                ",
"                                                                                ",
"                                                                                ",
"                                                                                ",
"                                                                                ",
"                                                                                ",
"                                                                                ",
"                                                                                ",
"                                    X X + + X                                   ",
"                                    a r e e t                                   ",
"                                  u } [ [ F V y                                 ",
"                                s Q S S A A z m f ,                             ",
"                              j L E E E F F D B c s 2                           ",
"                            O g E ! E E F F T B l L 3 @                         ",
"                            & K E G E G A A G B l Y 3 . 6                       ",
"                          t q I X.S S S ' ' A C M J w 0 1                       ",
"                        - P $.E ..] ] G G { F T Y n L / 4 $                     ",
"                        * H 7.-.{ ] { E E E F F D l C U 2 #                     ",
"                        - H 3.&.{ { O.E G G F G S k b W 3 %                     ",
"                        * K :.=.-.{ { G ~ G G G F l b R 3 $                     ",
"                        * ^ t.3.<.{ { G E G S G T c D ( 3                       ",
"                          ` K E 8...{ { { { G F C M d h 7                       ",
"                            = I w.8...{ ] ] E C x F 8 o                         ",
"                            * P w.<.8.{ { { ~ Z x R 3 X                         ",
"                            ; ) #.:.3.<.{ &.! Z v _ 5                           ",
"                                H r.8.q.<.%.b C J 9                             ",
"                                  H +.#.o.{ A N p                               ",
"                                  i ) ( ( U ( f                                 ",
"                                    < : : : >                                   ",
"                                                                                ",
"                                                                                ",
"                                                                                ",
"                                                                                ",
"                                                                                ",
"                                                                                ",
"                                                                                ",
"                                                                                "
};
