/* XPM */
static char *_eb35853dfa8491ca5216737d9dc0818lKABS8hwGRhoXcZ4[] = {
/* columns rows colors chars-per-pixel */
"40 40 142 2 ",
"   c None",
".  c #19161E",
"X  c #171722",
"o  c #191721",
"O  c #161B25",
"+  c #1A1923",
"@  c #1D1E2A",
"#  c #201D27",
"$  c #201E2D",
"%  c #16232C",
"&  c #1D212D",
"*  c #1D2630",
"=  c #1E2934",
"-  c #202027",
";  c #22232E",
":  c #30262F",
">  c #232532",
",  c #232A35",
"<  c #2A2B33",
"1  c #222D3A",
"2  c #2C2E39",
"3  c #3D2C36",
"4  c #2D323D",
"5  c #32343E",
"6  c #363A3F",
"7  c #462734",
"8  c #452837",
"9  c #5F2737",
"0  c #5D2738",
"q  c #43313B",
"w  c #4D353C",
"e  c #632939",
"r  c #702B37",
"t  c #7B2D3B",
"y  c #2D3441",
"u  c #2B3946",
"i  c #293A48",
"p  c #333641",
"a  c #353A44",
"s  c #3B3D45",
"d  c #343E4A",
"f  c #393E48",
"g  c #403343",
"h  c #4B3942",
"j  c #37404A",
"k  c #3B414C",
"l  c #374752",
"z  c #3D4654",
"x  c #344957",
"c  c #3E4A57",
"v  c #364D5D",
"b  c #3E4B59",
"n  c #3E5164",
"m  c #41444C",
"M  c #4D444E",
"N  c #414752",
"B  c #444A52",
"V  c #494D56",
"C  c #414C5A",
"Z  c #494E58",
"A  c #514C56",
"S  c #44515E",
"D  c #4A525C",
"F  c #51555E",
"G  c #424F60",
"H  c #455464",
"J  c #495564",
"K  c #4D5965",
"L  c #475669",
"P  c #49576A",
"I  c #465B6B",
"U  c #4C5B6C",
"Y  c #525E6B",
"T  c #475C71",
"R  c #4C5D72",
"E  c #515E71",
"W  c #4C626F",
"Q  c #576267",
"!  c #53626D",
"~  c #4B6273",
"^  c #526374",
"/  c #5E6A73",
"(  c #54667A",
")  c #54697C",
"_  c #586B7E",
"`  c #5E717D",
"'  c #616E77",
"]  c #63747E",
"[  c #68767D",
"{  c #8B303D",
"}  c #903442",
"|  c #9C3640",
" . c #993844",
".. c #8E4249",
"X. c #9A4A50",
"o. c #AC424D",
"O. c #B5494F",
"+. c #BA4D51",
"@. c #C75354",
"#. c #CE5457",
"$. c #CE5B5E",
"%. c #C66466",
"&. c #CF6669",
"*. c #CA696E",
"=. c #C77275",
"-. c #5B6D82",
";. c #5E7186",
":. c #5F7288",
">. c #617480",
",. c #667B86",
"<. c #6E7C87",
"1. c #CE7D84",
"2. c #6D808B",
"3. c #74858D",
"4. c #7A898F",
"5. c #758592",
"6. c #7A8A90",
"7. c #7C8F9B",
"8. c #7E9097",
"9. c #7A939E",
"0. c #7D959D",
"q. c #7F949E",
"w. c #7C929A",
"e. c #7F989D",
"r. c #7B96A0",
"t. c #7A97A3",
"y. c #828E94",
"u. c #85929A",
"i. c #8495A1",
"p. c #8696A0",
"a. c #879AA1",
"s. c #899CA2",
"d. c #8C9AA3",
"f. c #8B9FA9",
"g. c #8E9EAA",
"h. c #8EA2AA",
"j. c #8FA8AE",
"k. c #90A5AA",
"l. c #94A7AC",
"z. c #92A3AB",
"x. c #96A6B0",
"c. c #9AAEB3",
/* pixels */
"                                                                                ",
"                                                                                ",
"                                                                                ",
"                                                                                ",
"                                                                                ",
"                                      q h w w q                                 ",
"                                    3 X.=.%.@...:                               ",
"                              @ = > ..*.1.&.#.o.9 , = %                         ",
"                          O @ * ] j r +.$.$.O.{ 0 l ` * % @                     ",
"                        X & ! y f.k.M t |  .} e A j.e.u ! % O                   ",
"                        ; [ 0.a ,.t.W g 7 7 7 s ~ t.] d 0./ &                   ",
"                        < l.7.y I ) ) x i i i v ) ) H u 9.s.,                   ",
"                      @ a 5.U , S ~ ~ ~ ~ ~ ~ ~ ~ ~ b , ^ 2.4 O                 ",
"                      a 3.! , @ , , , 1 1 1 1 1 1 , = & 1 ! ] ;                 ",
"                      & 4 > & C I I I n I I I I I I I b @ > 2 O                 ",
"                    d [ / > z ^ ) ) ) T ~ ) ) ) ) ) ( ~ l , / ' p               ",
"                    k 0.` , U ( ( ) ) T ~ ) ) ) ) ( ~ ^ H , >.w.a               ",
"                    B p.U > U ( ( ( ) T ~ ) ) ) ) ( ^ ^ H > Y a.s               ",
"                    D x.P > U ( ( ( ) T ~ ) ) ( ( ( ^ ^ H > ^ c.m               ",
"                    m 6.C > U ( ) ( ( T ~ ) ) ( ( ( ^ ( H > J y.s               ",
"                    @ < @ @ U ) ) ( ( T ~ ) ) ) ( ( ( ( J @ & < @               ",
"                    f <.C > U ) ) ) ) R ( ) ) ) ) ( ( ( H > J <.5               ",
"                    V g.U > U ) ) ) -.R ( -._ ) ) ( ( ( H > ! h.k               ",
"                    Z h.U > U ) _ -.-.R ) -.-._ ) ) ( ( H > ^ z.k               ",
"                    p / z > U _ -.-.-.( ( -.-.-._ ) ( ( J ; N / 2               ",
"                    - 5 ; $ E -.-.-.;.;.( ) -.-._ _ ( ( J @ ; 5 #               ",
"                    V d.J > U -.-.-.;.;.;.( ^ -.-._ ( ( J > Y d.s               ",
"                    N 7.P > U _ -.-.;.;.;.-.( ^ -.) ( ( H > U 8.p               ",
"                    V d.P > U ) -.-.-.-.;.-.-.^ R ) ( ( H > Y d.s               ",
"                    < B 2 ; U ) ) -.-.-.-.-.-.^ I ( ^ ^ H @ 2 B ;               ",
"                    2 F p ; P ( ( ) _ _ _ _ ) ~ I ^ ^ ^ H @ p F <               ",
"                    B p.J > P ^ ( ( ( ) ) ) ( R P ^ ^ E S ; Y d.s               ",
"                    k 5.H > J ^ ^ ( ( ( ( ( ( R L ^ ^ E C ; K 4.p               ",
"                    B u.S > J ^ ^ ^ ^ ^ ^ ^ ^ U H E U U C ; K u.s               ",
"                    - 5 ; @ H ~ ^ ^ ^ ^ ^ ^ ^ I H U U U C @ > p -               ",
"                    < D p & H U U U U ^ ^ R R P H U U P C @ a D >               ",
"                    m 4.S ; S U U U U U U U U H H U U P b ; J 4.p               ",
"                    m 6.S ; C U U U U U U U U H G P U U c ; J 4.6               ",
"                    5 Q k @ k C b C C C C C C z k N z z d @ k Q <               ",
"                    . o o . . o o o o o o o o o o o o o . . o o .               "
};
