/* XPM */
static char *c547aad05d914c4dbbda223a838476598OMzmd3LszsyM23C[] = {
/* columns rows colors chars-per-pixel */
"40 40 200 2 ",
"   c None",
".  c #1A0E0B",
"X  c #12130E",
"o  c #1A0D12",
"O  c #1A1213",
"+  c #1C191C",
"@  c #1A171B",
"#  c #32150E",
"$  c #241C1C",
"%  c #281817",
"&  c #351C15",
"*  c #351914",
"=  c #34221B",
"-  c #271C23",
";  c #3B352E",
":  c #383734",
">  c #302826",
",  c #4C1B12",
"<  c #47261A",
"1  c #54261F",
"2  c #60291C",
"3  c #462D26",
"4  c #4C352C",
"5  c #5A402E",
"6  c #6D4936",
"7  c #544C48",
"8  c #534E51",
"9  c #745542",
"0  c #5F6B74",
"q  c #5E7077",
"w  c #66696E",
"e  c #68676C",
"r  c #71706F",
"t  c #626C75",
"y  c #6C6B74",
"u  c #646D7A",
"i  c #65727B",
"p  c #6A737B",
"a  c #767375",
"s  c #797075",
"d  c #76747A",
"f  c #7D747B",
"g  c #844933",
"h  c #975138",
"j  c #A45637",
"k  c #895F4D",
"l  c #9E644B",
"z  c #B56A4D",
"x  c #BD694A",
"c  c #B3704F",
"v  c #A47A5C",
"b  c #8B7A7E",
"n  c #85797C",
"m  c #917B7E",
"M  c #AC7B69",
"N  c #C55D49",
"B  c #C46A4B",
"V  c #C76B46",
"C  c #DB6E4C",
"Z  c #C8724D",
"A  c #D67243",
"S  c #DB724D",
"D  c #DA7A48",
"F  c #C97857",
"G  c #D77753",
"H  c #C76B5D",
"J  c #E87D4E",
"K  c #E47E4A",
"L  c #EB7A55",
"P  c #92857E",
"I  c #AE8162",
"U  c #BE8860",
"Y  c #CF8E5F",
"T  c #D58A5B",
"R  c #EA895B",
"E  c #E68A5D",
"W  c #E88F47",
"Q  c #C38660",
"!  c #DD8960",
"~  c #D18363",
"^  c #D99164",
"/  c #D79464",
"(  c #E48A63",
")  c #E69167",
"_  c #E29960",
"`  c #D6AC74",
"'  c #7C7C8A",
"]  c #8F7D82",
"[  c #907E82",
"{  c #75818D",
"}  c #7E8287",
"|  c #7E8D9A",
" . c #7B8692",
".. c #8A8587",
"X. c #928582",
"o. c #9E8385",
"O. c #938C85",
"+. c #928D88",
"@. c #9D898B",
"#. c #80929B",
"$. c #999697",
"%. c #A28485",
"&. c #A58986",
"*. c #A5858A",
"=. c #A98489",
"-. c #AA8988",
";. c #A68987",
":. c #AC918C",
">. c #AA998F",
",. c #B3958D",
"<. c #AD9C93",
"1. c #AC9E99",
"2. c #A39992",
"3. c #B99D96",
"4. c #AFA39A",
"5. c #BBAA9E",
"6. c #B4A59A",
"7. c #8899A4",
"8. c #91A2B1",
"9. c #9DA9A9",
"0. c #BEB4A7",
"q. c #A6B0BB",
"w. c #B4B0B1",
"e. c #AAABA9",
"r. c #DEA388",
"t. c #C6A99C",
"y. c #CCB29E",
"u. c #C5B19E",
"i. c #D3B69E",
"p. c #E1A88D",
"a. c #C6ADA0",
"s. c #CCB4A4",
"d. c #CEBBAC",
"f. c #CAB7A7",
"g. c #D2B6A4",
"h. c #D2B8A3",
"j. c #D1BBAB",
"k. c #D8B7A1",
"l. c #D6BBB2",
"z. c #CABCB3",
"x. c #D4C1AF",
"c. c #DAC5B9",
"v. c #D6C8BB",
"b. c #E8C4AC",
"n. c #F5E0BE",
"m. c #9DB6C5",
"M. c #9EBAC8",
"N. c #A1BAC6",
"B. c #A3BCCB",
"V. c #A8BBC9",
"C. c #A6C0CE",
"Z. c #B9C1C7",
"A. c #ABC7D7",
"S. c #ACC7DA",
"D. c #AECBDB",
"F. c #A8C6D6",
"G. c #B3C7D3",
"H. c #B2CBD7",
"J. c #B0C7D9",
"K. c #B2CCDB",
"L. c #B9CDDB",
"P. c #BDCCD4",
"I. c #BDD1D9",
"U. c #AFCEE1",
"Y. c #B2CEE1",
"T. c #DCD3CB",
"R. c #D7D0C7",
"E. c #C6D4DD",
"W. c #CAD6DD",
"Q. c #CFD5D5",
"!. c #D8D7D4",
"~. c #CACAC8",
"^. c #EECDC2",
"/. c #EED7CE",
"(. c #F3DECE",
"). c #E6E3DB",
"_. c #F0E7D5",
"`. c #C4D7E2",
"'. c #CCDBE3",
"]. c #CCDDE9",
"[. c #C7DAE5",
"{. c #D5DEE5",
"}. c #D4DFE9",
"|. c #DDE1E2",
" X c #D6E3EA",
".X c #DCE4EA",
"XX c #DEEAEE",
"oX c #E2E4E3",
"OX c #EAE9E5",
"+X c #E2E4EA",
"@X c #E1E9ED",
"#X c #EBE9EC",
"$X c #F4ECE3",
"%X c #F4EDEA",
"&X c #FBEDE1",
"*X c #F4F0E8",
"=X c #ECEEF1",
"-X c #ECF1F3",
";X c #EDF8FE",
":X c #F0F2F3",
/* pixels */
"                                                                                ",
"                                                                                ",
"                                                                                ",
"                                                                                ",
"                                                                                ",
"                                                                                ",
"                                                                                ",
"                                                                                ",
"                                    oXoXoXoXoXoX).oX|.                          ",
"                              +X+X.XW.E.E.E.E.E.E.E.E.{..X                      ",
"                              +X+XXXL.J.J.A.S.S.F.A.G.{.oXoX                    ",
"                             XI.I.I.K.D.D.D.D.D.D.D.J.L.L.P. X                  ",
"                          {.].H.D.D.B.B.B.B.B.N.N.N.B.A.S.D.].'.                ",
"                        .XE.H.K.Y.K.{ t t t t t t 0 i V.D.A.G.E.|.              ",
"                        +X`.D.U.m.8.' d a a s s s s d 7.m.D.A.W.|.              ",
"                        +X`.K.K. .e [ %.%.o.@.o.%.o.X.e 7.H.A.W.|.              ",
"                        #X[.B.| ..b o.=.=.*.%.%.o.%.o.b } #.C.W.|.              ",
"                        #X[.m.0 b *.*.=.-.-.;.&.;.*.=.o.f u B.'.oX              ",
"                        =X[.m.t m =.*.,.u.u.a.t.t.a.t.&.f i B.'.oX              ",
"                        =X].N.u [ -.:.<.4.4.5.s.6.1.<.:.n i C.'.oX              ",
"                        =X].B.u ] -.a.2.w w O.0.a t r 6.O.i C.'.@X              ",
"                        -X].B.t @.3.s.0.9.p O.f.e.#.y 5.O.i V.'.@X              ",
"                        =X].M.q <.h.g.R.XX{ X.d.+Xq.r 5.+.i V.'.@X              ",
"                        =X XG.y <.i.h.v.!.$.>.d.T.w.P 5.+.i P.{.                ",
"                          ;XQ.y 1.f.h.h.j.j.j.s.s.s.s.f.+.p {.                  ",
"                            Q.Z.!.).x.g.k.h.g.s.i.y.s.T.~.Z.                    ",
"                              OX$X&Xc.l.j.d.d.d.d.f.z.OX:X-X                    ",
"                              4 M p.(.%X*X*X%X%X$X$X).                          ",
"                              1 z ) b./.(.n._.#X/.^.c.7                         ",
"                            4 ~ ( R Z F ) W ` l.H N l &                         ",
"                            3 ! ( E V A R W _ r.G C c &                         ",
"                            3 T ^ ^ V A R R R ( R E Q &                         ",
"                            < Y / ^ D D J K J L K T U =                         ",
"                            4 I Y ! Z B B B B B S G v =                         ",
"                              & j G 2 # * # # , B h *                           ",
"                              . j S < X @ @ O # x g o                           ",
"                              . h F < X     + # z g .                           ",
"                              : 9 k =         % 6 5 > @                         ",
"                            $ 8 7 7 $         O > ; : O                         ",
"                            O - - $ O         o $ + @ O                         "
};
