/* XPM */
static char *b8153a2f5fbe40049adf65a421f45a855NOe46xE2sIx5rcD[] = {
/* columns rows colors chars-per-pixel */
"75 63 46 1 ",
"  c #2D1716",
". c #2E1817",
"X c #2E1818",
"o c #321716",
"O c #311817",
"+ c #2B272F",
"@ c #30272F",
"# c #31282F",
"$ c #2D2730",
"% c #2E2831",
"& c #312730",
"* c #382F37",
"= c #362F38",
"- c #382F38",
"; c #363037",
": c #3A3037",
"> c #363038",
", c #3B3038",
"< c #861A23",
"1 c #891A23",
"2 c #8C1A23",
"3 c #881A24",
"4 c #881B24",
"5 c #901A23",
"6 c #941A23",
"7 c #911A24",
"8 c #C7292F",
"9 c #CA2A2F",
"0 c #CD292F",
"q c #D5292F",
"w c #DE282F",
"e c #C72930",
"r c #CB2A30",
"t c #CC2A30",
"y c #D02A30",
"u c #D42A31",
"i c #DF2930",
"p c #E0292F",
"a c #E02930",
"s c #DD4449",
"d c #E2454A",
"f c #E6454A",
"g c #E9444A",
"h c #E0666A",
"j c #E7676B",
"k c #E8676A",
/* pixels */
"$++$$++$$$$$$$$$$&$$&&&@#@&&&&&&&&&&&&&&&&&&&&&&####&&&&$$$$$$+$$$$++$+$$$$",
"$$$$$$$$$$$$$$$$&$$$&&&&&&&&&&&&&&&&&&&&&&&&&&&&&&##&&&$$&$$$$$$$$$$+$$++$$",
"+$+$$$$$$$$$$$$$$$&&&&&&&&&&&&&&&&&&&&&&&&&&&&&&&&&&&&&&$$$&$$$$$$$$$$$$$+$",
"$$$$$$$$$$$$$$$$$&&&&&&&&&&&&&&&&&&&&&&&&&&&&&&&&&&&&&&&&&$$$&$$$$$$$$$$$$+",
"$$+==;=;;>>>>;;::*:-::::;::,,::,,,,,,,,,,:,::::;:;;:::*:*::;;>=>>=>========",
"$$$=;;;;>>>=;;:;*:::::::::,,,,,,,,,,,,,,,,,,,,::::,;:::-:**:;;>>=;>;=======",
"$$$;;;>>>>==>::-:-::::::,,,,,,,,,,,,,,,,,,,,,,,,,,,,::;:-:-::;;>==;===;====",
"$$$=;>>>>>=>.. .........OOOOoooooooooooooooooOOOOOOO....:::*:;;;;==;===;===",
"$$$;;>=>==;:. . ......OOOooooooooooooooooooooooooOOOOO..;:::*-:;;;>=>>==;==",
"$$$;>>>=$$&& .XX....OOoooooooooooOooOOOoooooooooooooOOO.:::::*;:;;>==>>==;+",
"$$$>====$&&&..X...OOOoooooooOooooooooooooooOOooooooooOOO::;:::*:::;>==>===$",
"$$$>==;;&&&&....rrrrrttttttttyyyyyyyyyyyyyytytytttttrrrrO...:;:**:;>==>===$",
"$$$>>;;>&@&&X...r9rttttttyyyyyyyyyyyyyyyyyyyyyyttttttrrrOO..;:::-*;;>===;=$",
"$$$==;;:&&&&...OrrttttttyyyyyyyyuuuuuuuuuyuyyyyyytttttrrOOO.::::;:*;>>=>>=$",
"$$$==;;::*:;..OOrrtttttttyyyyyuyuuuuuuuuuyyyyyyyytttttrrOOOO;:;::*-=>>==>==",
"$$$>=::::-:;..Oortt<<<<<3333333331111111333333333<<<<<<<rrrr...::--*;;==>>=",
"$$$>::::::::.XOottt<<<333333311211112211111113333333<<<<trrrO..;;:;-;;>=>>=",
"$$&;::*-:::,OOoottt<<33333111311222222222211213333333<<<tttrOO.::::*;;;==>>",
"$$&;:;:::::,OOoottt<<33yuuu112dsdd2222hhh222213333333<<<ttrrOO.;;::-*;;==>>",
"$$$;::--:;:,ooootty3333uuuu112sddd2222hhh222221113333<<<tttrOOO:,;:*-*;>>=>",
"$$$::-:::::,ooootyy3333uuuu222dddd2222jhh2222211133333<<tttroOO:::;:*-;>>=>",
"$$$:*::::::,ooootty3333uuqu222dddd2222hhh2222221111333<1ttttoOO,,;:;-*;:>=>",
"&$&*::::::,,ooootyy3331sssd22222555777ffd522222211113333t0ttoOO,,:::*-*;;==",
"$$&:-:;;::,,oooOtyy3331ssdd22557777777fff752522221113333ytttoOO,,::;:*-;;>=",
"$$&*::::::,,ooooyyy3311ssdd25777775555fff775522222111333yyttooo,,,,:;:*;;>=",
"$&&--:;;::,,ooooyyu33111222257jjkk5555iii555522222111133ytttooo,,,,;;*-=;>=",
"$&@*::::,,,,ooooyyu33121222577jjkj5566aii555752222211133yyyyooo,,,,:;:*;;>=",
"$&@:-:::,,,,ooooyyu11122225577jjkk6666aai555572222221133yyytooo,,,,,::-*;;=",
"$&&;:;:,,,,,ooooyyy11222225575jjkk6666wwi555572222222213yyytooo,,,,,::*=;;=",
"$&&;:;::,,,,ooooyuy11122257775ffgg6666666655575222222113yyytooo,,,,,::*=;;=",
"$&@:::;:,,,,ooooyyu11222257775ffgg6666666655655222221113yyytooo,,,,;::-*:;>",
"$&#*::::,,,,ooooyyu11222257775ffgg6666666666655222221113yyytooo,,,,:;:**:;=",
"$&@:::;:,,,,ooOoyyu11222257755ffgg6666666665555222221113yyytooo,,,,,::-*:;=",
"$&&;:;::,,,,ooooyyu11222257755iiwa6666666666555222221113yyytooo,,,,,::*-*;=",
"$&@:::,:,,,,ooOoyyu11222227755iiip6666666665555222221113yyytooo,,,,,::-=;;>",
"$&@*::,,,,,,ooOoyuy11122227775iiiw6666666655555222221113yyytooo,,,,,;:**;;=",
"$&@:::,,,,,,ooOoyyu1122222557555566666665665575222221113yyytooo,,,,,::-=;;=",
"$&&*:;,,,,,,ooooyyu3121122227755555666666555552222221133ytttooo,,,,:::*=;>=",
"$&@--:;;,,,,ooooyyu3112222225755565566655555525222221133yyt0ooo,,,,;;;-=;>>",
"$$&*::::,,,,ooooyyy3312222225775565556655555522222221133yyttooo,,,::;:*=;>=",
"$$&--:;;,,,,oooOyyy33321122225ffff5555555555222221111333ytttoOO,,,:;:*-=;;=",
"&$&*::::,,,,ooootyy33311122222ddff5755552522222221111333y00toOO,,,,:*-*;;==",
"&$&:*::::,,,ooootyy33311122222dddf5777755552222211113333y0ttoOO,,,,;-*-;;==",
"&$&:*:::::,,oooo0ty33331112222dddd22222252222221111133<<t0troOO,,,:;-**:;==",
"$$$;-:::;::,ooootty3333311212222222222222222221111133<<<00trOOO,-::;*-=:>==",
"$&&;*:;::;:,OOoot0y<<33331111221222222222211111113333<<<0trrOOO,:;:*==;>>=>",
"$&&;:*:::::,OOoottt<<33333111122222222222221111133333<<<trtrOOO:::;-==;>==>",
"$$$;:-*-:;::OOOottt<<<333331111211122221121111133333<<<<rrrrOO.::;:*==:>=>=",
"$$$>;**;-:::.OOortt<<<<<3333311211111111111111333<<<<<<<rrrrO..;;:--=;>==>;",
"$$$>;:**:::;.OOorrt<<<<<3333333111112121111333333<<<<<<<rrrrO..:::-*;;>====",
"$$$=;;;:*:::..OOrrt<<<<<<<3333333333333333333331<<<<<<<<rrrrO..:;:*=:>==>;=",
"+$$=>;;::*:::;:,OOorttttttyyyyyyyyyyyyyyyyyyyyttt000rrrrrr9r.  :-*==:>>=>==",
"$$$==;;;:-;:;:::OOOrrrttt0ttttyyyyyyyyyyyyytttt00ttrrrrrrrr8  .**-=:;======",
"$$$>==;;:*:-:;::OOOrrttttttttyyyyyyyyyyyyyytytttttrtrrrr9rrr . --*;>;=;===;",
"$$+>>>>=;;*:::;:..Orrrrrtttttttttyyyytyyttt00tttttrrrrrreere...*==>>==;;===",
"$$$;===>=;;*:*:;:;:OOOOOOooooooooooooooooooooooooOOOOOOO.  ... ;;;>==>=====",
"$$$;>>=>=;;:*:::;::.OOOOOooooooooooooooooooooooooOOOOO... .... ;;;==>>=====",
"$$$=>>==>>;:*-;:;::.OOOOOOOOoooooooooooooooooOOOOOOOOO..  .... ;>>=========",
"+$$==>====>;;=-*:;:;::;,,,,,,,,,,,,,,,,,,,,,,,,,,,,,;:;:;-=-=;;>;==========",
"+++====>>==>;;*-*-;:::::,,,,,,,,,,,,,,,,,,,,,,,,,--::;;;-=-=;:>=====;======",
"$++;===;>>=>;;;*-*::::;,;::,,,,,,,,,,,,,,,,,,,,,:;;:;:;:*-*;;>====;===;===%",
"$$+=;===;>>=>>;;=-*:;::::;::,,,,,,,,,,,,,,,,,,,::::;:--*=*;:>====;;==;=====",
"+$$==;====>>===>:;;*--*:;:;:;:;,,,,,,,,,,;,;:;:;:;*-*-===::>===>==;=;;==%=%"
};
