/* XPM */
static char *_4c0f3bdc5354f8ec13ddc57da156912TeaDRMi60U5ZijwN[] = {
/* columns rows colors chars-per-pixel */
"40 40 15 1 ",
"  c #1A2228",
". c #1B2329",
"X c #1D252B",
"o c #1E262C",
"O c #1F272D",
"+ c #212A2F",
"@ c #212B30",
"# c #20282E",
"$ c #242D33",
"% c #252E34",
"& c #1C242A",
"* c #242D32",
"= c #252E33",
"- c #21292F",
"; c white",
/* pixels */
"                                        ",
".XoooooooooooooooooooooooooooooooooOO+@ ",
".OooOOOOOOOOOOOOOOoOOOOOOOOOOOOOOOOO#$%.",
".O&&OOOOOOOOOOOOOO.oOOOOOOOOOOOOOOO&o*=.",
".oOOOOOOOOOOOOOOOOoOOOOOOOOOOOOOOOO##*=.",
".oOOOOOOOOOOOOOOOOOOOOOOOOOOOOOOOOO#-*=.",
".oOOOOOOOOOOOOOOOOOOOOOOOOOOOOOOOOO#-*=.",
".oOOOOOOOOOOOOOOOOOOOOOOOOOOOOOOOOO#-*=.",
".oOOOOOOOOOOOOOOOOOOOOOOOOOOOOOOOOO#-*=.",
".oOOOOOOOOOOOOOOOOOOOOOOOOOOOOOOOOO#-*=.",
".oOOOOOOOOOOOOOOOOOOOOOOOOOOOOOOOOO#-*=.",
".oOOOOOOOOOOOOOOOOOOOOOOOOOOOOOOOOO#-*=.",
".oOOOOOOOOOOOOOOOOOOOOOOOOOOOOOOOOO#-*=.",
".oOOOOOOOOOOOOOOOOOOOOOOOOOOOOOOOOO#-*=.",
".oOOOOOOOOOOOOOOOOOOOOOOOOOOOOOOOOO#-*=.",
".oOOOOOOOOOOOOOOOOOOOOOOOOOOOOOOOOO#-*=.",
".oOOOOOOOOOOOOOOOOOOOOOOOOOOOOOOOOO#-*=.",
".oOOOOOOOOOOOOOOOOOOOOOOOOOOOOOOOOO#-*=.",
".oOOOOOOOOOOOOOOOOOOOOOOOOOOOOOOOOO#-*=.",
".oOOOOOOOOOOOOOOOOOOOOOOOOOOOOOOOOOXO*=.",
".OooOOOOOOOOOOOOOOOOOOOOOOOOOOOOOOOXO*=.",
".O&XOOOOOOOOOOOOOOOOOOOOOOOOOOOOOOO#-*=.",
".oOOOOOOOOOOOOOOOOOOOOOOOOOOOOOOOOO#-*=.",
".oOOOOOOOOOOOOOOOOOOOOOOOOOOOOOOOOO#-*=.",
".oOOOOOOOOOOOOOOOOOOOOOOOOOOOOOOOOO#-*=.",
".oOOOOOOOOOOOOOOOOOOOOOOOOOOOOOOOOO#-*=.",
".oOOOOOOOOOOOOOOOOOOOOOOOOOOOOOOOOO#-*=.",
".oOOOOOOOOOOOOOOOOOOOOOOOOOOOOOOOOO#-*=.",
".oOOOOOOOOOOOOOOOOOOOOOOOOOOOOOOOOO#-*=.",
".oOOOOOOOOOOOOOOOOOOOOOOOOOOOOOOOOO#-*=.",
".oOOOOOOOOOOOOOOOOOOOOOOOOOOOOOOOOO#-*=.",
".oOOOOOOOOOOOOOOOOOOOOOOOOOOOOOOOOO#-*=.",
".oOOOOOOOOOOOOOOOOOOOOOOOOOOOOOOOOO#-*=.",
".oOOOOOOOOOOOOOOOOOOOOOOOOOOOOOOOOO#-*=.",
".oOOOOOOOOOOOOOOOOOOOOOOOOOOOOOOOOO#-*=.",
".oOOOOOOOOOOOOOOOOOOOOOOOOOOOOOOOOO#-*=.",
".oOOOOOOOOOOOOOOOOOOOOOOOOOOOOOOOOO--*=.",
".OXXOOOOOOOOOOOOOOOXoOOOOOOOOOOOOOOoO*=.",
".OXXOOOOOOOOOOOOOOO&XOOOOOOOOOOOOOOXO*=.",
".oOOOOOOOOOOOOOOOOOOOOOOOOOOOOOOOOO#-*=."
};
