/* XPM */
static char *c4e687f30bab46e782b056f86a1fecb9ZYc2Vxv1j51plZmQ[] = {
/* columns rows colors chars-per-pixel */
"40 40 89 1 ",
"  c #0F0F10",
". c #0F1010",
"X c #161615",
"o c #1A1713",
"O c #1F1A15",
"+ c #171919",
"@ c #18191A",
"# c #231E15",
"$ c #262316",
"% c #2B2416",
"& c #302718",
"* c #3B361B",
"= c #1C1F23",
"- c #1D2024",
"; c #1E262B",
": c #212324",
"> c #2E2F27",
", c #25282B",
"< c #292B2B",
"1 c #3D3A24",
"2 c #232631",
"3 c #252934",
"4 c #282C37",
"5 c #272D38",
"6 c #2B3136",
"7 c #2C323D",
"8 c #313537",
"9 c #3D3830",
"0 c #31363A",
"q c #373A3B",
"w c #3D3D3D",
"e c #40321E",
"r c #443D1C",
"t c #483E1C",
"y c #403F2A",
"u c #543F20",
"i c #4D451D",
"p c #53491E",
"a c #5A511F",
"s c #4B482C",
"d c #5D4422",
"f c #5A4E20",
"g c #504D2D",
"h c #5D5320",
"j c #5C572F",
"k c #5D582F",
"l c #5E5930",
"z c #624823",
"x c #675A22",
"c c #6A5D22",
"v c #6D6122",
"b c #2F3744",
"n c #303743",
"m c #303945",
"M c #383E44",
"N c #353E4A",
"B c #37414C",
"V c #3A444F",
"C c #3B4551",
"Z c #564E42",
"A c #5A5143",
"S c #464F5A",
"D c #4D5253",
"F c #465159",
"G c #4A545E",
"H c #4E5761",
"J c #4E5962",
"K c #535D68",
"L c #545E68",
"P c #57626A",
"I c #57646A",
"U c #58656A",
"Y c #59646C",
"T c #5D676F",
"R c #5D686F",
"E c #5F6970",
"W c #5F6C71",
"Q c #606B72",
"! c #606E72",
"~ c #667377",
"^ c #6C777B",
"/ c #6C787B",
"( c #717C7F",
") c #727D80",
"_ c #747F81",
"` c #778183",
"' c #788283",
"] c #798385",
"[ c #798486",
/* pixels */
"--;;;;;;;;;;;;;;;;;;;;;;;;;;;;;;;;;;;;;;",
"++@@@@@@++@@@@@@@@@@@@@@@@@@@@@@@@@@@@@@",
"XXXXXXXXXXXXXXXXXXXXXXXXXXXXXXXXXXXXXXXX",
"XX<qqqq86666666qqqqq660qqqq86666qqqqq<XX",
"XXD[```~EEEEEEW)]`]_!E/]```~EEEW(]``[DXX",
"XXD]```~EEEEEEW)```_!E^'```~EEEW('``]DXX",
"XXVQEEEYPPPPPPPREEEEPPYEEEEYPPPPTEEEQVXX",
"XXMLKKKKKKKKKKKKKKKKKKKKKKKKKKKKKKKKLMXX",
"XXMLKKKLLLLLLKKKKKKKKKKLLKKKKKKKKLLKLMXX",
"XX9AAAAw0000wAAAAAAZq000qAAAAAAAw7000,XX",
"XXezzzz% XX %zzzzzzdoXX.Odzzzzzd# XX.XXX",
"XXezzdd%XXXX&zzzzdduoXXX#dzzzzdd#XXXXXXX",
"XXrcf#OXX$aaaxxxxtOOXX*ahxxxxp#OXXXih*XX",
"XXrvaXXXX%ccccccvr XXXrvccccvpXXXXXavrXX",
"XX1lg:--=>jjjjjjky=--=ykjjjjjs----:gl1XX",
"XX6CVVVVVVVVVVVVVVVVVVVVVVVVVVVVVVCCC6XX",
"XX6CVVVVVVVVVVVVVVVVVVVVVVVVVVVVVVVVC6XX",
"XX6CB777777777777777777777777777777BC6XX",
"XX6CN322222222222222222222222222223NC6XX",
"XX6CN322235555555555555555555422223NC6XX",
"XX6CN32227HHHHJPIKHHHHKIIIIIUG32223NC6XX",
"XX6CN3222nKLLLLRWYLLLLYWWWWWWJ22223NC6XX",
"XX6CN3257mGGGGGJKGSSSSGKKKKKKF77323NC6XX",
"XX6CN32mCVVVVVVVVNbmmbNVVVVVVVVV523NC6XX",
"XX6CN32mCVVVVVVVVNmmmmNVVVVVVVVV523NC6XX",
"XX6CN32mCVNNNVVVVNmmmmNVVVVNNNVV523NC6XX",
"XX6CN32mCBmmNVVVVNmmmmNVVVVNbNVV523NC6XX",
"XX6CN32mCVmmNVVVVNmmmmNVVVVNmNVV523NC6XX",
"XX6CN32mCVVVVVVVVNmmmmNVVVVVVVVV523NC6XX",
"XX6CN32mCVVVVVVVVNmmmmNVVVVVVVVV523NC6XX",
"XX6CN32mCVNNBVVVVNmmmmNVVVVBNBVV523NC6XX",
"XX6CN32mCBmmNVVVVNmmmmNVVVVNbNVV523NC6XX",
"XX6CN32mCBmmNVVVVNmmmmNVVVVNbNVV523NC6XX",
"XX6CN32mCVNNNVVVVNmmmmNVVVVNNNVV523NC6XX",
"XX6CN32mCVVVVVVVVNmmmmNVVVVVVVVV523NC6XX",
"XX6CN32mCVVVVVVVVNmmmmNVVVVVVVVV523NC6XX",
"XX6CN325777777777555555777777777323NC6XX",
"XX6CN322222222222222222222222222223NC6XX",
"XX6CN433333333333333333333333333334NC6XX",
"XX6CVVVVVVVVVVVVVVVVVVVVVVVVVVVVVVVVC6XX"
};
